<?xml version="1.0" encoding="utf-8"?>
<!-- Generator: Adobe Illustrator 27.2.0, SVG Export Plug-In . SVG Version: 6.00 Build 0)  -->
<svg version="1.1" id="HSBC_MASTERBRAND_LOGO_WW_CMYK"
	 xmlns="http://www.w3.org/2000/svg" xmlns:xlink="http://www.w3.org/1999/xlink" x="0px" y="0px" viewBox="0 0 949 428"
	 style="enable-background:new 0 0 949 428;" xml:space="preserve">
<style type="text/css">
	.st0{fill:#FFFFFF;}
	.st1{fill:none;}
	.st2{fill:#DB0011;}
</style>
<rect x="212.6" y="141.7" class="st0" width="141.7" height="141.7"/>
<polyline class="st1" points="948.3,427.4 0,427.4 0,0 948.3,0 "/>
<polygon class="st2" points="425.2,212.6 354.3,141.7 354.3,283.5 "/>
<polygon class="st2" points="283.5,212.6 354.3,141.7 212.6,141.7 "/>
<polygon class="st2" points="141.7,212.6 212.6,283.5 212.6,141.7 "/>
<polygon class="st2" points="283.5,212.6 212.6,283.5 354.3,283.5 "/>
<path d="M487.4,216.9h-25.7v25.4h-12.9v-59.4h12.9v24.3h25.7v-24.3h12.9v59.4h-12.9V216.9z"/>
<path d="M531.2,243.3c-12.8,0-23.3-5.1-23.6-19.3h12.9c0.2,6.3,3.9,10.1,10.9,10.1c5.2,0,11.2-2.6,11.2-8.5c0-4.6-4-6.1-10.7-8
	l-4.3-1.2c-9.4-2.7-18.6-6.3-18.6-17c0-13.2,12.3-17.6,23.6-17.6c11.6,0,21.5,4,21.6,17.2h-12.9c-0.5-5.4-3.6-8.5-9.7-8.5
	c-4.8,0-9.5,2.6-9.5,7.8c0,4.4,3.9,5.7,12.3,8.3l4.9,1.6c10.2,3.2,16.6,6.7,16.6,16.6C555.9,238.2,542.8,243.3,531.2,243.3z"/>
<path d="M563.1,182.9h20.6c6.5,0,9.1,0.2,11.7,0.7c7.2,1.6,12.6,6.3,12.6,14.3c0,7.6-4.8,11.6-11.8,13.4c8,1.5,14,5.6,14,14.4
	c0,13.5-13.3,16.6-23.7,16.6h-23.3L563.1,182.9L563.1,182.9z M583.8,207.6c5.7,0,11.4-1.1,11.4-8c0-6.2-5.4-7.8-10.6-7.8h-9v15.8
	H583.8z M585,233.4c6,0,11.9-1.4,11.9-8.6c0-7.1-5.1-8.7-11.2-8.7h-10.1v17.3H585z"/>
<path d="M643.7,243.3c-19.1,0-27.7-12.2-27.7-30.3c0-17.9,9.5-31.3,28.4-31.3c11.8,0,23.3,5.3,23.6,18.7h-13.3
	c-0.7-5.9-4.6-9-10.3-9c-11.6,0-15.1,12.5-15.1,22s3.5,20.4,14.7,20.4c5.8,0,10.1-3.1,11-9.1h13.4
	C666.9,238.2,656.1,243.3,643.7,243.3z"/>
<g>
	<path d="M692,182.9h5.3v54.9h29.8v4.4H692V182.9z"/>
	<path d="M733.8,182.9h6v6.2h-6V182.9z M734.3,200.8h5v41.5h-5V200.8z"/>
	<path d="M766.3,186.3c-6.1,0-7.1,2.2-7.1,8v6.6h9.2v3.7h-9.2v37.8h-5v-37.8h-8.4v-3.7h8.4v-6.2c0-6.5,1-12.3,9.8-12.3
		c1.7,0,3.4,0.1,5.2,0.2v3.9C768.4,186.4,767.3,186.3,766.3,186.3z"/>
	<path d="M776,223.3c0,8.4,4.7,16.2,13.8,16.2c6.6,0,10.7-4.1,11.7-10.3h4.8c-1.7,9.3-7.8,14-17.2,14c-12.6,0-18.2-9.3-18.2-20.9
		c0-11.9,5.8-22.1,18.9-22.1c13.2,0,16.7,11.1,16.7,22.2H776V223.3z M789.5,204c-8.4,0-12.6,7.1-13.3,14.6h25.3v-0.8
		C801.5,210.5,797.4,204,789.5,204z"/>
</g>
</svg>
